<?xml version="1.0" encoding="UTF-8" standalone="no"?><!DOCTYPE svg PUBLIC "-//W3C//DTD SVG 1.1//EN" "http://www.w3.org/Graphics/SVG/1.1/DTD/svg11.dtd"><svg width="100%" height="100%" viewBox="0 0 40 40" version="1.1" xmlns="http://www.w3.org/2000/svg" xmlns:xlink="http://www.w3.org/1999/xlink" xml:space="preserve" xmlns:serif="http://www.serif.com/" style="fill-rule:evenodd;clip-rule:evenodd;stroke-linejoin:round;stroke-miterlimit:1.41421;"><path d="M10,20c0,0.332 0.132,0.65 0.366,0.884c0.235,0.234 0.553,0.366 0.884,0.366l14.483,0l-5.368,5.365c-0.116,0.116 -0.208,0.254 -0.271,0.406c-0.063,0.152 -0.096,0.315 -0.096,0.479c0,0.165 0.033,0.327 0.096,0.479c0.063,0.152 0.155,0.29 0.271,0.406c0.116,0.116 0.254,0.209 0.406,0.271c0.152,0.063 0.315,0.096 0.479,0.096c0.164,0 0.327,-0.033 0.479,-0.096c0.152,-0.063 0.29,-0.155 0.406,-0.271l7.5,-7.5c0.116,-0.116 0.209,-0.254 0.272,-0.406c0.063,-0.152 0.095,-0.314 0.095,-0.479c0,-0.164 -0.032,-0.327 -0.095,-0.479c-0.063,-0.152 -0.156,-0.29 -0.272,-0.406l-7.5,-7.5c-0.235,-0.235 -0.553,-0.367 -0.885,-0.367c-0.332,0 -0.65,0.132 -0.885,0.367c-0.235,0.235 -0.367,0.553 -0.367,0.885c0,0.332 0.132,0.65 0.367,0.885l5.368,5.365l-14.483,0c-0.331,0 -0.649,0.132 -0.884,0.366c-0.234,0.235 -0.366,0.553 -0.366,0.884Z" style="fill:#e0e0e0;"/></svg>