<?xml version="1.0" encoding="UTF-8" standalone="no"?><!DOCTYPE svg PUBLIC "-//W3C//DTD SVG 1.1//EN" "http://www.w3.org/Graphics/SVG/1.1/DTD/svg11.dtd"><svg width="100%" height="100%" viewBox="0 0 24 24" version="1.1" xmlns="http://www.w3.org/2000/svg" xmlns:xlink="http://www.w3.org/1999/xlink" xml:space="preserve" xmlns:serif="http://www.serif.com/" style="fill-rule:evenodd;clip-rule:evenodd;stroke-linejoin:round;stroke-miterlimit:1.41421;"><path d="M12,0c-6.628,0 -12,5.372 -12,12c0,6.628 5.372,12 12,12c6.628,0 12,-5.372 12,-12c0,-6.628 -5.372,-12 -12,-12Zm2.842,8.293l-1.803,-0.001c-0.214,0 -0.452,0.282 -0.452,0.655l0,1.303l2.257,0l-0.342,1.858l-1.915,-0.001l0.001,5.577l-2.129,0l0,-5.577l-1.931,0l0,-1.857l1.931,0l0,-1.093c0,-1.567 1.087,-2.841 2.58,-2.841l1.803,0l0.001,1.976Z" style="fill:#fff;fill-opacity:0.8;fill-rule:nonzero;"/></svg>