<?xml version="1.0" encoding="UTF-8" standalone="no"?><!DOCTYPE svg PUBLIC "-//W3C//DTD SVG 1.1//EN" "http://www.w3.org/Graphics/SVG/1.1/DTD/svg11.dtd"><svg width="100%" height="100%" viewBox="0 0 68 68" version="1.1" xmlns="http://www.w3.org/2000/svg" xmlns:xlink="http://www.w3.org/1999/xlink" xml:space="preserve" xmlns:serif="http://www.serif.com/" style="fill-rule:evenodd;clip-rule:evenodd;stroke-linejoin:round;stroke-miterlimit:1.41421;"><path d="M55.25,30.813l-4.516,-0.001l0,-14.875c0,-4.694 -3.805,-8.5 -8.5,-8.5l-16.468,0c-4.695,0 -8.5,3.806 -8.5,8.5l0,14.875l-4.516,0c-1.175,0 -2.125,0.95 -2.125,2.125l0,25.501c0,1.175 0.95,2.124 2.125,2.124l42.5,0c1.175,0 2.125,-0.949 2.125,-2.125l0,-25.5c0,-1.175 -0.95,-2.125 -2.125,-2.125Zm-33.203,-14.875c0,-2.052 1.667,-3.718 3.719,-3.718l16.468,0c2.052,0 3.719,1.666 3.719,3.718l0,14.875l-23.906,0l0,-14.875Zm30.547,39.844l-37.188,0l0,-20.187l37.188,0l0,20.187Zm-20.453,-9.23l0,3.519c0,0.292 0.239,0.532 0.531,0.532l2.656,0c0.292,0 0.531,-0.24 0.531,-0.532l0,-3.519c0.549,-0.394 0.958,-0.951 1.169,-1.592c0.211,-0.641 0.214,-1.332 0.007,-1.975c-0.207,-0.642 -0.612,-1.202 -1.157,-1.6c-0.546,-0.397 -1.203,-0.611 -1.878,-0.611c-0.675,0 -1.332,0.214 -1.878,0.611c-0.545,0.398 -0.95,0.958 -1.157,1.6c-0.207,0.643 -0.204,1.334 0.007,1.975c0.211,0.641 0.621,1.198 1.169,1.592Z" style="fill:#3031a5;fill-rule:nonzero;"/></svg>