<?xml version="1.0" encoding="UTF-8" standalone="no"?><!DOCTYPE svg PUBLIC "-//W3C//DTD SVG 1.1//EN" "http://www.w3.org/Graphics/SVG/1.1/DTD/svg11.dtd"><svg width="100%" height="100%" viewBox="0 0 210 43" version="1.1" xmlns="http://www.w3.org/2000/svg" xmlns:xlink="http://www.w3.org/1999/xlink" xml:space="preserve" xmlns:serif="http://www.serif.com/" style="fill-rule:evenodd;clip-rule:evenodd;"><g><path d="M62.421,8.9c2.743,0 5.022,0.705 6.837,2.116c1.815,1.411 3.039,3.324 3.672,5.74l-3.83,0c-0.528,-1.368 -1.372,-2.448 -2.533,-3.239c-1.139,-0.812 -2.542,-1.218 -4.21,-1.218c-1.329,0 -2.521,0.331 -3.577,0.994c-1.034,0.663 -1.857,1.614 -2.469,2.854c-0.59,1.218 -0.886,2.65 -0.886,4.296c0,1.625 0.296,3.057 0.886,4.297c0.612,1.219 1.435,2.159 2.469,2.822c1.056,0.662 2.248,0.994 3.577,0.994c1.668,0 3.071,-0.396 4.21,-1.187c1.161,-0.812 2.005,-1.891 2.533,-3.238l3.83,0c-0.633,2.415 -1.857,4.329 -3.672,5.739c-1.815,1.39 -4.094,2.085 -6.837,2.085c-2.111,0 -3.978,-0.481 -5.603,-1.443c-1.625,-0.984 -2.881,-2.341 -3.767,-4.073c-0.886,-1.752 -1.329,-3.751 -1.329,-5.996c0,-2.244 0.443,-4.232 1.329,-5.964c0.886,-1.753 2.142,-3.121 3.767,-4.104c1.625,-0.983 3.492,-1.475 5.603,-1.475Zm22.086,4.97c1.689,0 3.208,0.364 4.559,1.09c1.35,0.727 2.405,1.775 3.165,3.143c0.76,1.368 1.14,2.971 1.14,4.809c0,1.86 -0.38,3.474 -1.14,4.842c-0.76,1.368 -1.815,2.416 -3.165,3.143c-1.351,0.726 -2.87,1.09 -4.559,1.09c-1.688,0 -3.207,-0.364 -4.558,-1.09c-1.33,-0.727 -2.384,-1.775 -3.165,-3.143c-0.76,-1.389 -1.14,-3.003 -1.14,-4.842c0,-1.838 0.38,-3.441 1.14,-4.809c0.781,-1.368 1.835,-2.416 3.165,-3.143c1.351,-0.726 2.87,-1.09 4.558,-1.09Zm0,3.175c-0.928,0 -1.783,0.213 -2.564,0.641c-0.781,0.427 -1.414,1.09 -1.899,1.988c-0.464,0.876 -0.697,1.956 -0.697,3.238c0,1.304 0.233,2.395 0.697,3.271c0.485,0.876 1.118,1.528 1.899,1.956c0.781,0.427 1.636,0.641 2.564,0.641c0.929,0 1.783,-0.214 2.564,-0.641c0.782,-0.428 1.404,-1.08 1.867,-1.956c0.486,-0.877 0.729,-1.967 0.729,-3.271c0,-1.282 -0.243,-2.362 -0.729,-3.238c-0.463,-0.898 -1.085,-1.561 -1.867,-1.988c-0.781,-0.428 -1.635,-0.642 -2.564,-0.642l0,0.001Zm34.143,-3.238c2.068,0 3.714,0.662 4.938,1.988c1.245,1.325 1.867,3.217 1.867,5.675l0,10.293l-3.608,0l0,-9.908c0,-1.539 -0.38,-2.725 -1.14,-3.559c-0.759,-0.855 -1.804,-1.283 -3.133,-1.283c-1.414,0 -2.544,0.46 -3.388,1.379c-0.823,0.898 -1.234,2.223 -1.234,3.976l0,9.395l-3.609,0l0,-9.908c0,-1.539 -0.379,-2.725 -1.139,-3.559c-0.76,-0.855 -1.805,-1.283 -3.134,-1.283c-1.414,0 -2.543,0.46 -3.387,1.379c-0.823,0.898 -1.235,2.223 -1.235,3.976l0,9.395l-3.608,0l0,-17.668l3.608,0l0,3.688c0.443,-1.283 1.183,-2.266 2.216,-2.95c1.034,-0.684 2.248,-1.026 3.64,-1.026c1.457,0 2.712,0.363 3.768,1.09c1.076,0.727 1.856,1.774 2.342,3.142c0.506,-1.325 1.319,-2.362 2.437,-3.11c1.119,-0.748 2.385,-1.122 3.799,-1.122Zm21.022,0.064c1.52,0 2.87,0.363 4.052,1.09c1.202,0.727 2.141,1.774 2.817,3.143c0.675,1.368 1.013,2.971 1.013,4.809c0,1.86 -0.338,3.474 -1.013,4.842c-0.676,1.368 -1.615,2.416 -2.817,3.142c-1.182,0.727 -2.532,1.091 -4.052,1.091c-1.583,0 -2.934,-0.396 -4.051,-1.187c-1.119,-0.791 -1.9,-1.838 -2.343,-3.142l0,12.505l-3.609,0l0,-26.069l3.609,0l0,4.105c0.443,-1.304 1.224,-2.352 2.343,-3.143c1.117,-0.791 2.468,-1.186 4.051,-1.186Zm-1.108,3.207c-1.012,0 -1.921,0.245 -2.722,0.737c-0.803,0.47 -1.435,1.154 -1.9,2.052c-0.464,0.877 -0.695,1.892 -0.695,3.046c0,1.176 0.231,2.202 0.695,3.078c0.465,0.877 1.097,1.561 1.9,2.053c0.801,0.47 1.71,0.705 2.722,0.705c1.604,0 2.891,-0.513 3.862,-1.539c0.971,-1.047 1.456,-2.48 1.456,-4.297c0,-1.795 -0.485,-3.217 -1.456,-4.264c-0.971,-1.048 -2.258,-1.571 -3.862,-1.571Zm19.462,-3.207c1.583,0 2.932,0.396 4.051,1.186c1.119,0.791 1.91,1.839 2.374,3.143l0,-4.104l3.609,0l0,17.667l-3.609,0l0,-4.104c-0.464,1.304 -1.255,2.351 -2.374,3.142c-1.119,0.791 -2.468,1.187 -4.051,1.187c-1.52,0 -2.881,-0.364 -4.084,-1.091c-1.182,-0.726 -2.11,-1.774 -2.786,-3.142c-0.675,-1.368 -1.013,-2.982 -1.013,-4.842c0,-1.838 0.338,-3.441 1.013,-4.809c0.676,-1.368 1.604,-2.416 2.786,-3.143c1.203,-0.726 2.564,-1.09 4.084,-1.09Zm1.107,3.207c-1.604,0 -2.891,0.523 -3.861,1.571c-0.95,1.026 -1.425,2.447 -1.425,4.264c0,1.817 0.475,3.25 1.425,4.297c0.97,1.026 2.257,1.539 3.861,1.539c1.013,0 1.921,-0.235 2.722,-0.705c0.802,-0.492 1.435,-1.176 1.9,-2.053c0.464,-0.876 0.696,-1.902 0.696,-3.078c0,-1.154 -0.232,-2.169 -0.696,-3.046c-0.465,-0.898 -1.098,-1.582 -1.9,-2.052c-0.801,-0.492 -1.709,-0.737 -2.722,-0.737Zm23.007,-3.271c2.026,0 3.65,0.662 4.874,1.988c1.225,1.325 1.837,3.217 1.837,5.675l0,10.293l-3.609,0l0,-9.908c0,-1.582 -0.401,-2.8 -1.203,-3.655c-0.802,-0.877 -1.899,-1.315 -3.292,-1.315c-1.435,0 -2.585,0.47 -3.45,1.411c-0.865,0.919 -1.298,2.277 -1.298,4.072l0,9.395l-3.609,0l0,-17.668l3.609,0l0,3.88c0.464,-1.325 1.244,-2.351 2.342,-3.078c1.098,-0.727 2.364,-1.09 3.799,-1.09Zm12.988,0.288l5.223,12.987l4.844,-12.987l4.02,0l-10.541,26.069l-4.02,0l3.766,-8.818l-7.343,-17.251l4.051,0Z" style="fill:#fff;fill-rule:nonzero;"/><rect x="2.561" y="3.02" width="37.561" height="36.96" style="fill:none;stroke:#fff;stroke-width:6px;"/><rect x="12.805" y="13.1" width="17.073" height="16.8" style="fill:#ff7629;"/></g></svg>