<?xml version="1.0" encoding="UTF-8" standalone="no"?><!DOCTYPE svg PUBLIC "-//W3C//DTD SVG 1.1//EN" "http://www.w3.org/Graphics/SVG/1.1/DTD/svg11.dtd"><svg width="100%" height="100%" viewBox="0 0 12 12" version="1.1" xmlns="http://www.w3.org/2000/svg" xmlns:xlink="http://www.w3.org/1999/xlink" xml:space="preserve" xmlns:serif="http://www.serif.com/" style="fill-rule:evenodd;clip-rule:evenodd;stroke-linejoin:round;stroke-miterlimit:1.41421;"><path d="M3.851,10.999c-0.198,0 -0.391,-0.064 -0.544,-0.181c-0.086,-0.066 -0.157,-0.146 -0.209,-0.238c-0.052,-0.091 -0.084,-0.191 -0.094,-0.293c-0.011,-0.103 0.001,-0.207 0.034,-0.305c0.034,-0.098 0.087,-0.19 0.159,-0.269l3.808,-4.202l-3.672,-4.21c-0.071,-0.08 -0.123,-0.173 -0.155,-0.272c-0.032,-0.099 -0.042,-0.203 -0.03,-0.305c0.011,-0.103 0.045,-0.203 0.099,-0.293c0.054,-0.091 0.126,-0.171 0.213,-0.236c0.088,-0.071 0.191,-0.125 0.303,-0.158c0.112,-0.033 0.229,-0.044 0.346,-0.033c0.116,0.011 0.229,0.044 0.331,0.097c0.102,0.054 0.191,0.126 0.261,0.212l4.106,4.704c0.125,0.14 0.193,0.316 0.193,0.498c0,0.181 -0.068,0.357 -0.193,0.497l-4.25,4.704c-0.085,0.095 -0.194,0.17 -0.316,0.219c-0.123,0.049 -0.256,0.071 -0.39,0.064Z" style="fill-rule:nonzero;"/></svg>