<?xml version="1.0" encoding="UTF-8" standalone="no"?><!DOCTYPE svg PUBLIC "-//W3C//DTD SVG 1.1//EN" "http://www.w3.org/Graphics/SVG/1.1/DTD/svg11.dtd"><svg width="100%" height="100%" viewBox="0 0 50 50" version="1.1" xmlns="http://www.w3.org/2000/svg" xmlns:xlink="http://www.w3.org/1999/xlink" xml:space="preserve" xmlns:serif="http://www.serif.com/" style="fill-rule:evenodd;clip-rule:evenodd;stroke-linejoin:round;stroke-miterlimit:1.41421;"><path d="M25,34.375c-1.854,0 -3.667,-0.55 -5.209,-1.58c-1.541,-1.03 -2.743,-2.494 -3.452,-4.207c-0.71,-1.713 -0.896,-3.598 -0.534,-5.417c0.362,-1.819 1.255,-3.489 2.566,-4.8c1.311,-1.311 2.982,-2.204 4.8,-2.566c1.819,-0.362 3.704,-0.176 5.417,0.534c1.713,0.709 3.177,1.911 4.207,3.453c1.03,1.541 1.58,3.354 1.58,5.208c0.013,1.235 -0.22,2.46 -0.686,3.603c-0.467,1.144 -1.157,2.183 -2.03,3.056c-0.873,0.873 -1.912,1.563 -3.056,2.03c-1.143,0.466 -2.368,0.699 -3.603,0.686Zm0,-15.625c-0.826,-0.019 -1.647,0.13 -2.414,0.438c-0.767,0.307 -1.463,0.767 -2.047,1.351c-0.584,0.584 -1.044,1.28 -1.351,2.047c-0.308,0.767 -0.457,1.588 -0.438,2.414c-0.019,0.826 0.13,1.647 0.438,2.414c0.307,0.767 0.767,1.463 1.351,2.047c0.584,0.584 1.28,1.044 2.047,1.351c0.767,0.308 1.588,0.457 2.414,0.438c0.826,0.019 1.647,-0.13 2.414,-0.438c0.767,-0.307 1.463,-0.767 2.047,-1.351c0.584,-0.584 1.044,-1.28 1.352,-2.047c0.307,-0.767 0.456,-1.588 0.437,-2.414c0.019,-0.826 -0.13,-1.647 -0.438,-2.414c-0.307,-0.767 -0.767,-1.463 -1.351,-2.047c-0.584,-0.584 -1.28,-1.044 -2.047,-1.351c-0.767,-0.308 -1.588,-0.457 -2.414,-0.438Z" style="fill:#3031a5;fill-rule:nonzero;"/><path d="M45.789,17.256l-3.687,-6.387c-0.361,-0.627 -0.929,-1.108 -1.605,-1.363c-0.677,-0.255 -1.42,-0.267 -2.105,-0.034l-3.803,1.286c-0.655,-0.441 -1.34,-0.837 -2.05,-1.185l-0.786,-3.935c-0.142,-0.709 -0.524,-1.347 -1.083,-1.805c-0.559,-0.458 -1.26,-0.708 -1.983,-0.708l-7.375,0c-0.722,0 -1.423,0.25 -1.982,0.708c-0.559,0.458 -0.942,1.096 -1.083,1.805l-0.786,3.935c-0.718,0.344 -1.411,0.737 -2.074,1.177l-3.781,-1.278c-0.684,-0.232 -1.427,-0.219 -2.103,0.035c-0.676,0.255 -1.242,0.736 -1.603,1.362l-3.688,6.387c-0.361,0.626 -0.494,1.357 -0.377,2.07c0.117,0.712 0.477,1.363 1.02,1.84l3.017,2.651c-0.027,0.394 -0.06,0.785 -0.06,1.183c0,0.403 0.016,0.802 0.044,1.197l-3,2.637c-0.543,0.477 -0.904,1.127 -1.021,1.84c-0.118,0.713 0.015,1.444 0.376,2.07l3.687,6.387c0.361,0.627 0.928,1.109 1.605,1.364c0.676,0.255 1.42,0.267 2.105,0.035l3.803,-1.288c0.655,0.442 1.34,0.839 2.05,1.186l0.786,3.935c0.141,0.708 0.524,1.346 1.083,1.804c0.559,0.458 1.26,0.708 1.982,0.708l6.813,0l0,-3.125l-6.813,0l-1.109,-5.547c-1.535,-0.57 -2.959,-1.401 -4.211,-2.456l-5.386,1.822l-3.687,-6.388l4.258,-3.742c-0.292,-1.616 -0.295,-3.27 -0.011,-4.887l-4.247,-3.733l3.687,-6.388l5.355,1.813c1.261,-1.057 2.696,-1.885 4.242,-2.447l1.109,-5.547l7.375,0l1.11,5.547c1.534,0.57 2.959,1.401 4.211,2.456l5.386,-1.822l3.687,6.388l-4.372,3.831l2.06,2.35l4.375,-3.834c0.543,-0.477 0.903,-1.127 1.021,-1.84c0.118,-0.713 -0.015,-1.444 -0.376,-2.07Z" style="fill:#3031a5;fill-rule:nonzero;"/><path d="M35.938,40.906l-4.047,-4.047l-2.204,2.203l6.25,6.25l10.938,-10.937l-2.203,-2.203l-8.734,8.734Z" style="fill:#3031a5;fill-rule:nonzero;"/></svg>