<?xml version="1.0" encoding="UTF-8" standalone="no"?><!DOCTYPE svg PUBLIC "-//W3C//DTD SVG 1.1//EN" "http://www.w3.org/Graphics/SVG/1.1/DTD/svg11.dtd"><svg width="100%" height="100%" viewBox="0 0 68 68" version="1.1" xmlns="http://www.w3.org/2000/svg" xmlns:xlink="http://www.w3.org/1999/xlink" xml:space="preserve" xmlns:serif="http://www.serif.com/" style="fill-rule:evenodd;clip-rule:evenodd;stroke-linejoin:round;stroke-miterlimit:1.41421;"><path d="M14,5.667c0,-0.442 0.176,-0.866 0.488,-1.179c0.313,-0.312 0.737,-0.488 1.179,-0.488l36.666,0c0.442,0 0.866,0.176 1.179,0.488c0.312,0.313 0.488,0.737 0.488,1.179l0,1.666l8.333,0c0.442,0 0.866,0.176 1.179,0.488c0.312,0.313 0.488,0.737 0.488,1.179l0,10c0,2.21 -0.878,4.33 -2.441,5.893c-1.563,1.562 -3.682,2.44 -5.892,2.44l-2.805,0c-2.569,7.267 -9.217,12.607 -17.195,13.265l0,10.069l11.666,0c0.442,0 0.866,0.175 1.179,0.488c0.312,0.312 0.488,0.736 0.488,1.178l0,10c0,0.442 -0.176,0.866 -0.488,1.179c-0.313,0.312 -0.737,0.488 -1.179,0.488l-26.666,0c-0.442,0 -0.866,-0.176 -1.179,-0.488c-0.312,-0.313 -0.488,-0.737 -0.488,-1.179l0,-10c0,-0.442 0.176,-0.866 0.488,-1.178c0.313,-0.313 0.737,-0.488 1.179,-0.488l11.666,0l0,-10.069c-7.976,-0.658 -14.626,-5.998 -17.195,-13.265l-2.805,0c-2.21,0 -4.329,-0.878 -5.892,-2.44c-1.563,-1.563 -2.441,-3.683 -2.441,-5.893l0,-10c0,-0.442 0.176,-0.866 0.488,-1.179c0.313,-0.312 0.737,-0.488 1.179,-0.488l8.333,0l0,-1.666Zm36.667,15l0,-13.334l-33.334,0l0,13.334c0,9.205 7.462,16.666 16.667,16.666c9.205,0 16.667,-7.461 16.667,-16.666Zm3.333,-10l0,13.333l1.667,0c1.326,0 2.597,-0.527 3.535,-1.465c0.938,-0.937 1.465,-2.209 1.465,-3.535l0,-8.333l-6.667,0Zm-46.667,0l6.667,0l0,13.333l-1.667,0c-1.326,0 -2.598,-0.527 -3.535,-1.465c-0.938,-0.937 -1.465,-2.209 -1.465,-3.535l0,-8.333Zm15,43.333l0,6.667l23.334,0l0,-6.667l-23.334,0Z" style="fill:#ff7629;"/></svg>