<?xml version="1.0" encoding="UTF-8" standalone="no"?><!DOCTYPE svg PUBLIC "-//W3C//DTD SVG 1.1//EN" "http://www.w3.org/Graphics/SVG/1.1/DTD/svg11.dtd"><svg width="100%" height="100%" viewBox="0 0 20 20" version="1.1" xmlns="http://www.w3.org/2000/svg" xmlns:xlink="http://www.w3.org/1999/xlink" xml:space="preserve" xmlns:serif="http://www.serif.com/" style="fill-rule:evenodd;clip-rule:evenodd;stroke-linejoin:round;stroke-miterlimit:1.41421;"><path d="M5.88,2.015l0.973,-0.292c0.532,-0.161 1.105,-0.122 1.612,0.108c0.506,0.231 0.911,0.638 1.139,1.146l0.752,1.671c0.196,0.437 0.251,0.924 0.156,1.393c-0.095,0.469 -0.334,0.897 -0.684,1.223l-1.245,1.161c-0.036,0.034 -0.059,0.08 -0.065,0.129c-0.036,0.331 0.188,0.975 0.705,1.871c0.375,0.651 0.716,1.108 1.005,1.364c0.202,0.179 0.313,0.218 0.36,0.204l1.675,-0.512c0.458,-0.14 0.947,-0.133 1.401,0.019c0.453,0.153 0.848,0.443 1.128,0.831l1.067,1.48c0.325,0.45 0.475,1.003 0.423,1.555c-0.052,0.552 -0.303,1.067 -0.705,1.449l-0.739,0.7c-0.392,0.371 -0.873,0.634 -1.397,0.764c-0.524,0.13 -1.072,0.122 -1.592,-0.023c-2.295,-0.641 -4.352,-2.578 -6.196,-5.77c-1.845,-3.197 -2.493,-5.95 -1.896,-8.261c0.134,-0.52 0.4,-0.996 0.772,-1.383c0.372,-0.387 0.837,-0.672 1.351,-0.827Zm0.361,1.198c-0.308,0.092 -0.588,0.263 -0.811,0.495c-0.223,0.232 -0.383,0.518 -0.463,0.83c-0.502,1.943 0.072,4.384 1.769,7.323c1.694,2.935 3.518,4.652 5.45,5.192c0.312,0.086 0.641,0.091 0.955,0.013c0.314,-0.078 0.602,-0.236 0.837,-0.458l0.739,-0.7c0.184,-0.174 0.298,-0.408 0.321,-0.659c0.024,-0.251 -0.045,-0.503 -0.192,-0.707l-1.067,-1.479c-0.127,-0.177 -0.307,-0.309 -0.513,-0.379c-0.206,-0.069 -0.429,-0.072 -0.637,-0.008l-1.679,0.514c-0.975,0.29 -1.86,-0.494 -2.81,-2.14c-0.64,-1.108 -0.938,-1.967 -0.864,-2.634c0.039,-0.347 0.2,-0.667 0.455,-0.905l1.245,-1.161c0.159,-0.148 0.268,-0.343 0.311,-0.556c0.043,-0.213 0.018,-0.435 -0.071,-0.633l-0.752,-1.672c-0.104,-0.23 -0.288,-0.415 -0.518,-0.52c-0.23,-0.105 -0.49,-0.123 -0.732,-0.05l-0.973,0.294Z" style="fill:#fff;fill-rule:nonzero;"/></svg>