<?xml version="1.0" encoding="UTF-8" standalone="no"?><!DOCTYPE svg PUBLIC "-//W3C//DTD SVG 1.1//EN" "http://www.w3.org/Graphics/SVG/1.1/DTD/svg11.dtd"><svg width="100%" height="100%" viewBox="0 0 50 50" version="1.1" xmlns="http://www.w3.org/2000/svg" xmlns:xlink="http://www.w3.org/1999/xlink" xml:space="preserve" xmlns:serif="http://www.serif.com/" style="fill-rule:evenodd;clip-rule:evenodd;stroke-linejoin:round;stroke-miterlimit:1.41421;"><path d="M46.417,30.145l-4.687,-4.687c-0.293,-0.293 -0.691,-0.457 -1.105,-0.457c-0.414,0 -0.812,0.164 -1.105,0.457l-14.52,14.52l0,6.897l6.897,0l14.52,-14.52c0.293,-0.293 0.458,-0.69 0.458,-1.105c0,-0.414 -0.165,-0.811 -0.458,-1.104l0,-0.001Zm-15.814,13.604l-2.478,0l0,-2.478l7.812,-7.812l2.479,2.478l-7.813,7.812Zm10.022,-10.022l-2.478,-2.478l2.478,-2.478l2.478,2.478l-2.478,2.478Z" style="fill:#144f43;fill-rule:nonzero;"/><rect x="28.125" y="21.875" width="3.125" height="6.25" style="fill:#144f43;"/><rect x="21.875" y="18.75" width="3.125" height="9.375" style="fill:#144f43;"/><rect x="15.625" y="12.5" width="3.125" height="15.625" style="fill:#144f43;"/><path d="M18.75,46.875l-9.375,0c-0.829,-0.001 -1.623,-0.33 -2.209,-0.916c-0.586,-0.586 -0.915,-1.381 -0.916,-2.209l0,-37.5c0.001,-0.829 0.33,-1.623 0.916,-2.209c0.586,-0.586 1.38,-0.915 2.209,-0.916l25,0c0.828,0.001 1.623,0.33 2.209,0.916c0.586,0.586 0.915,1.38 0.916,2.209l0,15.625l-3.125,0l0,-15.625l-25,0l0,37.5l9.375,0l0,3.125Z" style="fill:#144f43;fill-rule:nonzero;"/></svg>