<?xml version="1.0" encoding="UTF-8" standalone="no"?><!DOCTYPE svg PUBLIC "-//W3C//DTD SVG 1.1//EN" "http://www.w3.org/Graphics/SVG/1.1/DTD/svg11.dtd"><svg width="100%" height="100%" viewBox="0 0 68 68" version="1.1" xmlns="http://www.w3.org/2000/svg" xmlns:xlink="http://www.w3.org/1999/xlink" xml:space="preserve" xmlns:serif="http://www.serif.com/" style="fill-rule:evenodd;clip-rule:evenodd;stroke-linejoin:round;stroke-miterlimit:1.41421;"><path d="M29.75,6.375c-1.105,0 -2.253,0.383 -3.06,1.19c-0.808,0.808 -1.19,1.955 -1.19,3.06c0,1.174 -0.951,2.125 -2.125,2.125l-13,0c-2.209,0 -4,1.791 -4,4l0,34.5c0,2.209 1.791,4 4,4l17.446,0c1.216,0 2.127,-1.088 2.017,-2.3c-0.096,-1.058 -0.95,-1.95 -2.012,-1.95l-13.201,0c-2.209,0 -4,-1.791 -4,-4l0,-5.475c0,-1.986 2.265,-3.275 4.25,-3.275l18.287,0c0.54,0 1.044,-0.259 1.383,-0.679c1.03,-1.278 0.194,-3.571 -1.448,-3.571l-18.222,0c-2.529,0 -4.25,-1.721 -4.25,-4.25l0,-8.75c0,-2.209 1.791,-4 4,-4l38.75,0c2.209,0 4,1.791 4,4l0,8.75c0,0.544 0.316,1.076 0.828,1.259c0.214,0.076 0.425,0.156 0.636,0.239c1.28,0.506 2.786,-0.372 2.786,-1.749l0,-12.749c0,-2.209 -1.791,-4 -4,-4l-13,0c-1.174,0 -2.125,-0.951 -2.125,-2.125c0,-1.105 -0.383,-2.252 -1.19,-3.06c-0.808,-0.807 -1.955,-1.19 -3.06,-1.19l-8.5,0Zm0,5.313c0,-0.587 0.476,-1.063 1.062,-1.063l6.375,0c0.587,0 1.063,0.476 1.063,1.063c0,0.586 -0.476,1.062 -1.063,1.062l-6.375,0c-0.586,0 -1.062,-0.476 -1.062,-1.062Zm-8.5,13.812c-1.174,0 -2.125,0.951 -2.125,2.125l0,2.125c0,1.174 0.951,2.125 2.125,2.125c1.174,0 2.125,-0.951 2.125,-2.125l0,-2.125c0,-1.174 -0.951,-2.125 -2.125,-2.125Zm25.5,0c-1.174,0 -2.125,0.951 -2.125,2.125l0,0.491c0,1.295 1.259,2.219 2.533,1.985c0.969,-0.178 1.717,-0.994 1.717,-1.979l0,-0.497c0,-1.174 -0.951,-2.125 -2.125,-2.125Zm4.25,8.5c-9.371,0 -17,7.629 -17,17c0,9.371 7.629,17 17,17c9.371,0 17,-7.629 17,-17c0,-9.371 -7.629,-17 -17,-17Zm0,4.25c7.055,0 12.75,5.695 12.75,12.75c0,7.055 -5.695,12.75 -12.75,12.75c-7.055,0 -12.75,-5.695 -12.75,-12.75c0,-7.055 5.695,-12.75 12.75,-12.75Zm0,2.125c-1.174,0 -2.125,0.951 -2.125,2.125l0,6.625c0,2.209 1.791,4 4,4l4.5,0c1.174,0 2.125,-0.951 2.125,-2.125c0,-1.174 -0.951,-2.125 -2.125,-2.125l-1.063,0c-1.76,0 -3.187,-1.427 -3.187,-3.188l0,-3.187c0,-1.174 -0.951,-2.125 -2.125,-2.125Z" style="fill:#26ab62;fill-rule:nonzero;"/></svg>