<?xml version="1.0" encoding="UTF-8" standalone="no"?><!DOCTYPE svg PUBLIC "-//W3C//DTD SVG 1.1//EN" "http://www.w3.org/Graphics/SVG/1.1/DTD/svg11.dtd"><svg width="100%" height="100%" viewBox="0 0 50 50" version="1.1" xmlns="http://www.w3.org/2000/svg" xmlns:xlink="http://www.w3.org/1999/xlink" xml:space="preserve" xmlns:serif="http://www.serif.com/" style="fill-rule:evenodd;clip-rule:evenodd;stroke-linejoin:round;stroke-miterlimit:1.41421;"><path d="M40.625,21.875l-3.125,0l0,-6.25c0,-3.315 -1.317,-6.495 -3.661,-8.839c-2.344,-2.344 -5.524,-3.661 -8.839,-3.661c-3.315,0 -6.495,1.317 -8.839,3.661c-2.344,2.344 -3.661,5.524 -3.661,8.839l0,6.25l-3.125,0l-3.125,3.125l0,18.75l3.125,3.125l31.25,0l3.125,-3.125l0,-18.75l-3.125,-3.125Zm-25,-6.25c0,-2.486 0.988,-4.871 2.746,-6.629c1.758,-1.758 4.143,-2.746 6.629,-2.746c2.486,0 4.871,0.988 6.629,2.746c1.758,1.758 2.746,4.143 2.746,6.629l0,6.25l-18.75,0l0,-6.25Zm25,28.125l-31.25,0l0,-18.75l31.25,0l0,18.75Z" style="fill:#144f43;fill-rule:nonzero;"/></svg>