<?xml version="1.0" encoding="UTF-8" standalone="no"?><!DOCTYPE svg PUBLIC "-//W3C//DTD SVG 1.1//EN" "http://www.w3.org/Graphics/SVG/1.1/DTD/svg11.dtd"><svg width="100%" height="100%" viewBox="0 0 20 20" version="1.1" xmlns="http://www.w3.org/2000/svg" xmlns:xlink="http://www.w3.org/1999/xlink" xml:space="preserve" xmlns:serif="http://www.serif.com/" style="fill-rule:evenodd;clip-rule:evenodd;stroke-linejoin:round;stroke-miterlimit:1.41421;"><path d="M4.375,3.334l11.25,-0.001c0.692,0 1.357,0.265 1.86,0.74c0.503,0.475 0.805,1.125 0.844,1.815l0.004,0.154l0,7.917c0,0.691 -0.264,1.357 -0.739,1.86c-0.476,0.503 -1.125,0.805 -1.816,0.844l-0.153,0.004l-11.25,0c-0.692,0 -1.357,-0.265 -1.86,-0.74c-0.503,-0.475 -0.805,-1.125 -0.844,-1.815l-0.004,-0.154l0,-7.916c0,-0.692 0.264,-1.358 0.739,-1.86c0.476,-0.503 1.125,-0.805 1.816,-0.844l0.153,-0.005l11.25,0l-11.25,0l0,0.001Zm12.708,4.478l-6.791,3.575c-0.077,0.04 -0.161,0.065 -0.248,0.071c-0.086,0.006 -0.173,-0.006 -0.255,-0.035l-0.08,-0.035l-6.792,-3.575l0,6.146c0,0.366 0.137,0.719 0.385,0.988c0.248,0.269 0.588,0.436 0.953,0.466l0.12,0.005l11.25,0c0.366,0 0.719,-0.138 0.988,-0.386c0.269,-0.248 0.435,-0.588 0.465,-0.953l0.005,-0.12l0,-6.147Zm-1.458,-3.228l-11.25,0c-0.366,0.001 -0.719,0.138 -0.988,0.386c-0.269,0.248 -0.435,0.588 -0.465,0.953l-0.005,0.12l0,0.357l7.083,3.728l7.083,-3.729l0,-0.356c0,-0.366 -0.137,-0.719 -0.385,-0.988c-0.249,-0.27 -0.589,-0.436 -0.954,-0.466l-0.119,-0.005Z" style="fill:#fff;fill-rule:nonzero;"/></svg>