<?xml version="1.0" encoding="UTF-8" standalone="no"?><!DOCTYPE svg PUBLIC "-//W3C//DTD SVG 1.1//EN" "http://www.w3.org/Graphics/SVG/1.1/DTD/svg11.dtd"><svg width="100%" height="100%" viewBox="0 0 50 50" version="1.1" xmlns="http://www.w3.org/2000/svg" xmlns:xlink="http://www.w3.org/1999/xlink" xml:space="preserve" xmlns:serif="http://www.serif.com/" style="fill-rule:evenodd;clip-rule:evenodd;stroke-linejoin:round;stroke-miterlimit:1.41421;"><path d="M24.681,44.333c-0.414,-0.002 -0.822,-0.097 -1.195,-0.278c-0.432,-0.243 -0.783,-0.609 -1.008,-1.051c-0.225,-0.443 -0.314,-0.942 -0.256,-1.435l0,-9.305l-14.944,11.486c-0.399,0.316 -0.88,0.513 -1.387,0.567c-0.506,0.054 -1.017,-0.037 -1.474,-0.262c-0.463,-0.23 -0.853,-0.584 -1.125,-1.023c-0.272,-0.439 -0.417,-0.946 -0.417,-1.463l0,-33.333c-0.005,-0.521 0.137,-1.034 0.41,-1.478c0.272,-0.445 0.665,-0.804 1.132,-1.036c0.456,-0.226 0.968,-0.318 1.475,-0.264c0.506,0.055 0.987,0.252 1.386,0.57l14.944,11.486l0,-9.306c-0.058,-0.493 0.031,-0.992 0.256,-1.434c0.225,-0.443 0.576,-0.809 1.008,-1.052c0.462,-0.235 0.982,-0.331 1.497,-0.277c0.515,0.054 1.003,0.257 1.406,0.583l21.278,16.666c0.332,0.26 0.6,0.592 0.785,0.971c0.184,0.379 0.281,0.795 0.281,1.217c0,0.421 -0.096,0.838 -0.281,1.217c-0.185,0.379 -0.453,0.711 -0.785,0.97l-21.278,16.681c-0.489,0.379 -1.09,0.584 -1.708,0.583Zm0,-17.778l0,15.014l21.194,-16.666l-21.278,-16.667l0.084,15.014l-19.125,-15.042l0,33.334l19.125,-14.987Z" style="fill:#26ab62;fill-rule:nonzero;"/></svg>