<?xml version="1.0" encoding="UTF-8" standalone="no"?><!DOCTYPE svg PUBLIC "-//W3C//DTD SVG 1.1//EN" "http://www.w3.org/Graphics/SVG/1.1/DTD/svg11.dtd"><svg width="100%" height="100%" viewBox="0 0 68 68" version="1.1" xmlns="http://www.w3.org/2000/svg" xmlns:xlink="http://www.w3.org/1999/xlink" xml:space="preserve" xmlns:serif="http://www.serif.com/" style="fill-rule:evenodd;clip-rule:evenodd;stroke-linejoin:round;stroke-miterlimit:1.41421;"><path d="M62.862,20.181c3.428,7.158 4.072,15.334 1.81,22.941c-2.262,7.606 -7.27,14.101 -14.052,18.223c-6.781,4.122 -14.853,5.577 -22.647,4.082c-7.794,-1.494 -14.754,-5.832 -19.53,-12.17c-4.776,-6.338 -7.026,-14.225 -6.314,-22.129c0.712,-7.904 4.336,-15.261 10.168,-20.644c5.832,-5.382 13.456,-8.405 21.391,-8.482c7.936,-0.078 15.617,2.797 21.553,8.064l7.526,-7.525c0.354,-0.348 0.831,-0.542 1.327,-0.54c0.496,0.002 0.971,0.2 1.322,0.551c0.351,0.351 0.549,0.826 0.551,1.322c0.002,0.497 -0.192,0.974 -0.54,1.327l-19.456,19.456l-0.001,0l-10.64,10.641c-0.355,0.345 -0.831,0.536 -1.325,0.533c-0.495,-0.004 -0.968,-0.201 -1.317,-0.551c-0.35,-0.35 -0.548,-0.823 -0.551,-1.318c-0.004,-0.494 0.188,-0.97 0.533,-1.324l9.214,-9.214c-2.401,-1.795 -5.342,-2.716 -8.337,-2.613c-2.996,0.104 -5.866,1.227 -8.137,3.183c-2.271,1.956 -3.807,4.628 -4.353,7.575c-0.546,2.947 -0.071,5.992 1.348,8.632c1.419,2.64 3.696,4.717 6.455,5.888c2.759,1.171 5.835,1.365 8.719,0.55c2.885,-0.814 5.405,-2.588 7.144,-5.029c1.74,-2.441 2.594,-5.402 2.423,-8.394c-0.017,-0.249 0.016,-0.498 0.096,-0.733c0.08,-0.236 0.206,-0.453 0.37,-0.639c0.165,-0.187 0.365,-0.339 0.589,-0.448c0.224,-0.108 0.467,-0.171 0.715,-0.186c0.248,-0.014 0.497,0.022 0.732,0.104c0.234,0.083 0.45,0.211 0.635,0.378c0.185,0.167 0.334,0.368 0.441,0.593c0.106,0.225 0.166,0.469 0.178,0.717c0.222,3.872 -0.892,7.702 -3.155,10.851c-2.263,3.149 -5.539,5.425 -9.279,6.449c-3.74,1.024 -7.719,0.732 -11.27,-0.825c-3.551,-1.558 -6.46,-4.287 -8.241,-7.732c-1.78,-3.445 -2.324,-7.396 -1.541,-11.194c0.784,-3.798 2.847,-7.212 5.845,-9.671c2.999,-2.459 6.75,-3.814 10.628,-3.839c3.877,-0.026 7.646,1.281 10.676,3.701l8.008,-8.007c-5.259,-4.586 -12.031,-7.057 -19.007,-6.936c-6.976,0.121 -13.659,2.826 -18.754,7.592c-5.096,4.765 -8.243,11.251 -8.831,18.203c-0.588,6.952 1.424,13.875 5.647,19.429c4.222,5.554 10.356,9.343 17.212,10.635c6.856,1.291 13.948,-0.007 19.902,-3.644c5.954,-3.637 10.347,-9.353 12.328,-16.043c1.981,-6.689 1.41,-13.876 -1.603,-20.169c-0.211,-0.449 -0.236,-0.965 -0.069,-1.433c0.167,-0.468 0.512,-0.851 0.961,-1.065c0.448,-0.214 0.963,-0.242 1.432,-0.078c0.469,0.164 0.854,0.508 1.071,0.955Z" style="fill:#ff7629;fill-rule:nonzero;"/></svg>