<?xml version="1.0" encoding="UTF-8" standalone="no"?><!DOCTYPE svg PUBLIC "-//W3C//DTD SVG 1.1//EN" "http://www.w3.org/Graphics/SVG/1.1/DTD/svg11.dtd"><svg width="100%" height="100%" viewBox="0 0 68 68" version="1.1" xmlns="http://www.w3.org/2000/svg" xmlns:xlink="http://www.w3.org/1999/xlink" xml:space="preserve" xmlns:serif="http://www.serif.com/" style="fill-rule:evenodd;clip-rule:evenodd;stroke-linejoin:round;stroke-miterlimit:1.41421;"><path d="M34,64.222c16.692,0 30.222,-13.53 30.222,-30.222c0,-16.692 -13.53,-30.222 -30.222,-30.222c-16.692,0 -30.222,13.53 -30.222,30.222c0,16.692 13.53,30.222 30.222,30.222Zm0,3.778c18.777,0 34,-15.223 34,-34c0,-18.777 -15.223,-34 -34,-34c-18.777,0 -34,15.223 -34,34c0,18.777 15.223,34 34,34Z" style="fill:#26ab62;"/><path d="M22.308,24.221c4.161,0.176 6.305,4.874 5.708,6.513c-1.738,-1.052 -3.68,-3.438 -5.708,-3.338c-2.04,0.101 -4.171,2.692 -6.271,4.043c-0.269,-1.953 2.11,-7.392 6.271,-7.218Z" style="fill:#26ab62;fill-rule:nonzero;"/><path d="M28.874,28.804c0.202,0.751 0.275,1.577 0.03,2.253c-0.048,0.131 -0.124,0.25 -0.223,0.348c-0.099,0.098 -0.219,0.173 -0.35,0.219c-0.132,0.047 -0.272,0.063 -0.411,0.049c-0.138,-0.014 -0.272,-0.059 -0.391,-0.131c-0.505,-0.318 -0.989,-0.669 -1.447,-1.052l-0.369,-0.302c-0.34,-0.276 -0.668,-0.544 -1.008,-0.799c-0.949,-0.708 -1.7,-1.082 -2.352,-1.05c-0.684,0.034 -1.511,0.512 -2.573,1.35c-0.3,0.237 -0.621,0.505 -0.954,0.784c-0.732,0.612 -1.526,1.275 -2.279,1.759c-0.134,0.086 -0.287,0.137 -0.445,0.148c-0.158,0.011 -0.317,-0.018 -0.461,-0.084c-0.144,-0.066 -0.269,-0.168 -0.364,-0.295c-0.095,-0.128 -0.156,-0.277 -0.177,-0.434c-0.095,-0.689 0.049,-1.551 0.319,-2.393c0.308,-0.95 0.75,-1.85 1.313,-2.675c1.171,-1.713 3.071,-3.328 5.615,-3.222c2.456,0.104 4.277,1.543 5.372,3.111c0.552,0.786 0.941,1.63 1.153,2.416l0.002,0Zm-2.702,-1.334c-0.865,-1.237 -2.198,-2.234 -3.904,-2.304c-1.617,-0.068 -2.984,0.948 -3.978,2.399c-0.344,0.507 -0.634,1.049 -0.865,1.616c0.019,-0.018 0.04,-0.034 0.06,-0.051c0.359,-0.3 0.73,-0.61 1.124,-0.923c1.039,-0.82 2.297,-1.687 3.653,-1.755c1.377,-0.066 2.609,0.703 3.574,1.426c0.338,0.251 0.676,0.525 0.996,0.786c-0.177,-0.421 -0.398,-0.821 -0.66,-1.194Z" style="fill:#26ab62;"/><path d="M45.532,24.221c-4.162,0.176 -6.304,4.874 -5.709,6.513c1.74,-1.052 3.682,-3.438 5.711,-3.338c2.04,0.101 4.168,2.692 6.271,4.043c0.266,-1.953 -2.11,-7.392 -6.271,-7.218l-0.002,0Z" style="fill:#26ab62;fill-rule:nonzero;"/><path d="M38.968,28.804c-0.204,0.751 -0.278,1.577 -0.032,2.253c0.047,0.131 0.123,0.25 0.223,0.349c0.099,0.098 0.219,0.173 0.35,0.219c0.132,0.047 0.272,0.063 0.411,0.049c0.139,-0.014 0.273,-0.059 0.393,-0.132c0.495,-0.298 0.984,-0.68 1.445,-1.052l0.37,-0.302c0.34,-0.276 0.669,-0.544 1.009,-0.799c0.946,-0.708 1.7,-1.082 2.349,-1.05c0.686,0.034 1.511,0.512 2.575,1.35c0.298,0.237 0.619,0.505 0.954,0.784c0.731,0.612 1.524,1.275 2.28,1.759c0.133,0.085 0.286,0.136 0.444,0.147c0.158,0.011 0.316,-0.018 0.46,-0.084c0.144,-0.066 0.269,-0.168 0.363,-0.295c0.095,-0.127 0.156,-0.276 0.178,-0.433c0.094,-0.689 -0.049,-1.551 -0.318,-2.393c-0.308,-0.95 -0.75,-1.85 -1.312,-2.675c-1.172,-1.713 -3.074,-3.328 -5.618,-3.222c-2.456,0.104 -4.275,1.543 -5.372,3.111c-0.519,0.733 -0.909,1.551 -1.152,2.416Zm2.701,-1.334c0.865,-1.237 2.199,-2.234 3.902,-2.304c1.619,-0.068 2.987,0.948 3.978,2.399c0.359,0.523 0.648,1.08 0.867,1.616c-0.019,-0.018 -0.041,-0.034 -0.06,-0.051c-0.359,-0.3 -0.729,-0.61 -1.126,-0.923c-1.039,-0.82 -2.297,-1.687 -3.651,-1.755c-1.379,-0.066 -2.611,0.703 -3.576,1.426c-0.336,0.251 -0.674,0.525 -0.993,0.786c0.16,-0.391 0.381,-0.799 0.657,-1.194l0.002,0Z" style="fill:#26ab62;"/><path d="M20.202,41.556c2.937,7.238 8.349,11.333 13.798,11.333c5.451,0 10.861,-4.095 13.798,-11.333l-27.596,0Zm13.798,15.111c-7.627,0 -14.238,-5.758 -17.487,-14.167c-0.032,-0.081 -0.063,-0.162 -0.095,-0.244c-0.842,-2.249 0.96,-4.478 3.364,-4.478l28.438,0c2.404,0 4.208,2.229 3.362,4.478c-0.031,0.082 -0.062,0.163 -0.093,0.244c-3.25,8.409 -9.862,14.167 -17.489,14.167Z" style="fill:#26ab62;"/></svg>