<?xml version="1.0" encoding="UTF-8" standalone="no"?><!DOCTYPE svg PUBLIC "-//W3C//DTD SVG 1.1//EN" "http://www.w3.org/Graphics/SVG/1.1/DTD/svg11.dtd"><svg width="100%" height="100%" viewBox="0 0 68 68" version="1.1" xmlns="http://www.w3.org/2000/svg" xmlns:xlink="http://www.w3.org/1999/xlink" xml:space="preserve" xmlns:serif="http://www.serif.com/" style="fill-rule:evenodd;clip-rule:evenodd;stroke-linejoin:round;stroke-miterlimit:1.41421;"><path d="M51.86,1.68c-0.536,0 -1.05,0.213 -1.428,0.592c-0.379,0.379 -0.592,0.892 -0.592,1.428c0,0.536 0.213,1.05 0.592,1.429c0.378,0.378 0.892,0.591 1.428,0.591l7.244,0l-19.364,19.364l-10.69,-10.694c-0.187,-0.188 -0.41,-0.337 -0.656,-0.439c-0.245,-0.102 -0.508,-0.154 -0.774,-0.154c-0.265,0 -0.529,0.052 -0.774,0.154c-0.245,0.102 -0.468,0.251 -0.656,0.439l-20.2,20.2c-0.379,0.379 -0.592,0.894 -0.592,1.43c0,0.536 0.213,1.051 0.592,1.43c0.379,0.379 0.894,0.593 1.43,0.593c0.537,0 1.051,-0.214 1.43,-0.593l18.77,-18.774l10.69,10.694c0.188,0.188 0.411,0.338 0.656,0.439c0.245,0.102 0.508,0.155 0.774,0.155c0.266,0 0.529,-0.053 0.774,-0.155c0.246,-0.101 0.469,-0.251 0.656,-0.439l20.79,-20.794l0,7.244c0,0.536 0.213,1.05 0.592,1.428c0.379,0.379 0.892,0.592 1.428,0.592c0.536,0 1.05,-0.213 1.428,-0.592c0.379,-0.378 0.592,-0.892 0.592,-1.428l0,-12.12c0,-0.536 -0.213,-1.049 -0.592,-1.428c-0.378,-0.379 -0.892,-0.592 -1.428,-0.592l-12.12,0Zm4.04,28.28c-0.536,0 -1.049,0.213 -1.428,0.592c-0.379,0.379 -0.592,0.892 -0.592,1.428l0,32.32c0,0.536 0.213,1.049 0.592,1.428c0.379,0.379 0.892,0.592 1.428,0.592c0.536,0 1.05,-0.213 1.428,-0.592c0.379,-0.379 0.592,-0.892 0.592,-1.428l0,-32.32c0,-0.536 -0.213,-1.049 -0.592,-1.428c-0.378,-0.379 -0.892,-0.592 -1.428,-0.592Zm-32.32,8.08c-0.535,0 -1.049,0.213 -1.428,0.592c-0.379,0.378 -0.592,0.892 -0.592,1.428l0,24.24c0,0.536 0.213,1.049 0.592,1.428c0.379,0.379 0.893,0.592 1.428,0.592c0.536,0 1.05,-0.213 1.429,-0.592c0.378,-0.379 0.591,-0.892 0.591,-1.428l0,-24.24c0,-0.536 -0.213,-1.05 -0.591,-1.428c-0.379,-0.379 -0.893,-0.592 -1.429,-0.592Zm14.14,10.1c0,-0.536 0.213,-1.05 0.592,-1.428c0.379,-0.379 0.892,-0.592 1.428,-0.592c0.536,0 1.05,0.213 1.429,0.592c0.378,0.378 0.591,0.892 0.591,1.428l0,16.16c0,0.536 -0.213,1.049 -0.591,1.428c-0.379,0.379 -0.893,0.592 -1.429,0.592c-0.536,0 -1.049,-0.213 -1.428,-0.592c-0.379,-0.379 -0.592,-0.892 -0.592,-1.428l0,-16.16Zm-32.32,4.04c0,-0.536 0.213,-1.05 0.592,-1.428c0.379,-0.379 0.893,-0.592 1.428,-0.592c0.536,0 1.05,0.213 1.429,0.592c0.378,0.378 0.591,0.892 0.591,1.428l0,12.12c0,0.536 -0.213,1.049 -0.591,1.428c-0.379,0.379 -0.893,0.592 -1.429,0.592c-0.535,0 -1.049,-0.213 -1.428,-0.592c-0.379,-0.379 -0.592,-0.892 -0.592,-1.428l0,-12.12Z" style="fill:#ff7629;fill-rule:nonzero;"/></svg>