<?xml version="1.0" encoding="UTF-8" standalone="no"?><!DOCTYPE svg PUBLIC "-//W3C//DTD SVG 1.1//EN" "http://www.w3.org/Graphics/SVG/1.1/DTD/svg11.dtd"><svg width="100%" height="100%" viewBox="0 0 20 20" version="1.1" xmlns="http://www.w3.org/2000/svg" xmlns:xlink="http://www.w3.org/1999/xlink" xml:space="preserve" xmlns:serif="http://www.serif.com/" style="fill-rule:evenodd;clip-rule:evenodd;stroke-linecap:round;stroke-linejoin:round;"><path d="M10,1.875c-3.105,0 -5.625,2.398 -5.625,5.352c0,3.398 3.75,8.784 5.127,10.644c0.057,0.078 0.132,0.142 0.219,0.186c0.086,0.044 0.182,0.067 0.279,0.067c0.097,0 0.193,-0.023 0.279,-0.067c0.087,-0.044 0.162,-0.108 0.219,-0.186c1.377,-1.86 5.127,-7.243 5.127,-10.644c0,-2.954 -2.519,-5.352 -5.625,-5.352Z" style="fill:none;stroke:#fff;stroke-width:1.5px;"/><path d="M10,9.375c1.036,0 1.875,-0.839 1.875,-1.875c0,-1.036 -0.839,-1.875 -1.875,-1.875c-1.036,0 -1.875,0.839 -1.875,1.875c0,1.036 0.839,1.875 1.875,1.875Z" style="fill:none;stroke:#fff;stroke-width:1.5px;"/></svg>