<?xml version="1.0" encoding="UTF-8" standalone="no"?><!DOCTYPE svg PUBLIC "-//W3C//DTD SVG 1.1//EN" "http://www.w3.org/Graphics/SVG/1.1/DTD/svg11.dtd"><svg width="100%" height="100%" viewBox="0 0 24 24" version="1.1" xmlns="http://www.w3.org/2000/svg" xmlns:xlink="http://www.w3.org/1999/xlink" xml:space="preserve" xmlns:serif="http://www.serif.com/" style="fill-rule:evenodd;clip-rule:evenodd;stroke-linejoin:round;stroke-miterlimit:1.41421;"><path d="M12,0c-6.628,0 -12,5.372 -12,12c0,6.628 5.372,12 12,12c6.628,0 12,-5.372 12,-12c0,-6.628 -5.372,-12 -12,-12Zm4.881,9.83c0.005,0.102 0.006,0.205 0.006,0.305c0,3.125 -2.376,6.726 -6.723,6.726c-1.285,0.002 -2.543,-0.367 -3.623,-1.062c0.184,0.022 0.373,0.031 0.564,0.031c1.107,0 2.126,-0.376 2.935,-1.011c-0.493,-0.01 -0.97,-0.173 -1.366,-0.467c-0.396,-0.294 -0.69,-0.704 -0.842,-1.173c0.354,0.067 0.719,0.053 1.067,-0.042c-0.535,-0.108 -1.016,-0.398 -1.362,-0.82c-0.345,-0.422 -0.534,-0.951 -0.535,-1.497l0,-0.029c0.319,0.176 0.684,0.284 1.072,0.296c-0.502,-0.333 -0.857,-0.846 -0.993,-1.433c-0.136,-0.587 -0.042,-1.204 0.261,-1.724c0.594,0.73 1.335,1.327 2.174,1.753c0.839,0.426 1.758,0.67 2.698,0.718c-0.12,-0.507 -0.068,-1.039 0.146,-1.514c0.214,-0.475 0.579,-0.866 1.039,-1.112c0.459,-0.246 0.987,-0.333 1.501,-0.248c0.514,0.085 0.985,0.337 1.341,0.718c0.529,-0.105 1.036,-0.299 1.5,-0.574c-0.176,0.548 -0.545,1.013 -1.039,1.309c0.469,-0.056 0.927,-0.182 1.358,-0.374c-0.317,0.475 -0.716,0.89 -1.179,1.224Z" style="fill:#fff;fill-opacity:0.8;fill-rule:nonzero;"/></svg>